<?xml version="1.0" standalone="no"?>
<!DOCTYPE svg PUBLIC "-//W3C//DTD SVG 20010904//EN"
 "http://www.w3.org/TR/2001/REC-SVG-20010904/DTD/svg10.dtd">
<svg version="1.0" xmlns="http://www.w3.org/2000/svg"
 width="1000.000000pt" height="1000.000000pt" viewBox="0 0 1000.000000 1000.000000"
 preserveAspectRatio="xMidYMid meet">
<metadata>
Created by potrace 1.11, written by Peter Selinger 2001-2013
</metadata>
<g transform="translate(0.000000,1000.000000) scale(0.100000,-0.100000)"
fill="#000000" stroke="none">
<path d="M1955 9989 c-1029 -106 -1843 -925 -1945 -1958 -14 -144 -14 -5920 0
-6062 69 -689 446 -1288 1040 -1654 267 -164 591 -272 919 -305 143 -14 5919
-14 6062 0 514 52 965 265 1329 630 365 364 578 815 630 1329 14 143 14 5919
0 6062 -52 514 -265 965 -630 1329 -364 365 -815 578 -1329 630 -125 12 -5954
12 -6076 -1z m485 -4764 l0 -1765 970 0 970 0 0 -225 0 -225 -1240 0 -1240 0
0 1990 0 1990 270 0 270 0 0 -1765z m3042 926 l3 -838 890 838 890 839 343 0
c188 0 342 -1 342 -3 0 -2 -443 -419 -984 -927 l-984 -924 1055 -1061 1055
-1060 -348 -3 -349 -2 -957 957 -958 958 0 -958 0 -957 -270 0 -270 0 0 1990
0 1990 270 0 270 0 2 -839z"/>
</g>
</svg>
